<svg width="26" height="27" viewBox="0 0 26 27" fill="none" xmlns="http://www.w3.org/2000/svg">
<path d="M14.5868 5.03591C14.5868 6.12339 14.5868 7.2158 14.5868 8.30328C14.5868 8.4755 14.5819 8.64773 14.5376 8.81503C14.3703 9.48917 13.7503 9.94188 13.0515 9.9222C12.3134 9.90251 11.7328 9.32187 11.6491 8.68217C11.6344 8.57392 11.6245 8.46074 11.6245 8.34756C11.6245 6.13323 11.6245 3.91891 11.6245 1.70458C11.6245 1.27647 11.7377 0.887734 12.0526 0.582649C12.5053 0.139783 13.0466 0.011844 13.6371 0.238198C14.2177 0.459631 14.5277 0.912338 14.5868 1.53235C14.5966 1.62584 14.5868 1.71934 14.5868 1.81775C14.5868 2.89047 14.5868 3.96319 14.5868 5.03591Z" fill="#ACD384"/>
<path d="M18.2527 7.34866C18.2527 7.73248 18.2626 8.12121 18.2527 8.50503C18.233 9.07584 17.9575 9.49902 17.4507 9.76474C16.5994 10.2076 15.5611 9.72537 15.3397 8.79535C15.3101 8.67234 15.3003 8.53947 15.3003 8.41154C15.3003 7.70787 15.3003 7.00421 15.3003 6.30054C15.3003 5.82815 15.4676 5.42465 15.8367 5.12941C16.309 4.75051 16.8356 4.68162 17.3818 4.92766C17.928 5.16878 18.2232 5.61656 18.2478 6.22181C18.2626 6.60071 18.2478 6.97468 18.2478 7.35358L18.2527 7.34866Z" fill="#03181A"/>
<path d="M18.9663 7.36837C18.9663 6.98947 18.9663 6.6155 18.9663 6.2366C18.9663 5.65596 19.3649 5.0261 20.0341 4.84896C21.0921 4.56847 21.8499 5.35579 21.9089 6.10374C21.9187 6.20708 21.9237 6.31041 21.9237 6.41375C21.9237 7.04852 21.9237 7.6833 21.9237 8.31807C21.9237 8.4903 21.9138 8.66252 21.8745 8.82983C21.7072 9.49905 21.097 9.94191 20.4081 9.93207C19.5863 9.91731 18.9663 9.23333 18.9663 8.48045C18.9663 8.1114 18.9663 7.74234 18.9663 7.37329V7.36837Z" fill="#03181A"/>
<path d="M13.2238 26.5001C6.32496 26.5001 0.715332 20.8905 0.715332 13.9916C0.715332 8.86421 3.92365 4.17968 8.70168 2.32456C9.44963 2.03424 10.2911 2.40329 10.5814 3.15124C10.8717 3.89919 10.5027 4.74064 9.75472 5.03096C6.08385 6.45305 3.61856 10.055 3.61856 13.9916C3.61856 19.2912 7.92912 23.5969 13.2238 23.5969C14.3654 23.5969 15.4874 23.4001 16.5502 23.0064C17.3031 22.7308 18.1347 23.1147 18.4152 23.8675C18.6908 24.6204 18.3069 25.452 17.5541 25.7325C16.1713 26.2442 14.7148 26.5001 13.2238 26.5001Z" fill="#03181A"/>
<path d="M25.7324 13.9916C25.7324 12.4613 25.4568 10.9605 24.9155 9.53837C24.6301 8.79042 23.7936 8.41153 23.0407 8.69693C22.2928 8.98233 21.9139 9.81885 22.1993 10.5717C22.6126 11.6592 22.7947 12.8107 22.8242 13.9916C22.8538 15.1726 22.593 15.955 22.5191 16.265C21.909 18.8041 19.0894 20.1376 16.7324 18.8927C15.4579 18.2185 14.7592 17.1261 14.5918 15.6942C14.5623 15.4482 14.5574 15.1972 14.6312 14.9561C14.7985 14.3902 15.3152 13.9916 15.9155 13.9867C16.4913 13.9818 17.067 13.9867 17.6427 13.9867C17.9872 13.9867 18.3316 13.9916 18.6711 13.9818C19.3994 13.9572 19.9751 13.4159 20.0686 12.6778C20.1523 12.0233 19.7537 11.3148 19.0254 11.0933C18.8434 11.0392 18.6515 11.0294 18.4645 11.0294C17.6476 11.0294 16.8357 11.0294 16.0189 11.0294C15.7433 11.0294 15.4727 11.0441 15.1971 11.0884C13.2879 11.3984 11.5754 13.0961 11.6099 15.4432C11.6148 15.8566 11.6591 16.265 11.7378 16.6685C12.0232 18.1103 12.6875 19.3503 13.7504 20.3591C15.325 21.85 17.1998 22.4848 19.36 22.2732C20.3147 22.1797 21.2053 21.8894 22.0369 21.417C23.7887 20.4181 25.7275 18.7697 25.7176 13.9916H25.7324Z" fill="#03181A"/>
</svg>
