<svg width="672" height="161" viewBox="0 0 672 161" fill="none" xmlns="http://www.w3.org/2000/svg">
<path d="M84.244 29.8039C84.244 36.4083 84.244 43.0427 84.244 49.6471C84.244 50.693 84.2141 51.739 83.9452 52.7551C82.9291 56.8492 79.1637 59.5986 74.9201 59.479C70.4375 59.3595 66.9111 55.8331 66.4031 51.9482C66.3134 51.2907 66.2537 50.6034 66.2537 49.916C66.2537 36.4681 66.2537 23.0202 66.2537 9.57224C66.2537 6.97231 66.941 4.61144 68.8536 2.75861C71.603 0.0690239 74.8902 -0.70797 78.4764 0.666708C82.0027 2.0115 83.8854 4.76086 84.244 8.52628C84.3038 9.09408 84.244 9.66189 84.244 10.2596C84.244 16.7744 84.244 23.2891 84.244 29.8039Z" fill="#ACD384"/>
<path d="M106.508 43.8495C106.508 46.1805 106.568 48.5414 106.508 50.8723C106.388 54.3389 104.715 56.9089 101.637 58.5227C96.4667 61.2123 90.1611 58.2836 88.8164 52.6355C88.637 51.8884 88.5773 51.0815 88.5773 50.3045C88.5773 46.0311 88.5773 41.7576 88.5773 37.4842C88.5773 34.6153 89.5933 32.1648 91.8347 30.3717C94.7036 28.0706 97.9012 27.6522 101.218 29.1464C104.535 30.6108 106.329 33.3302 106.478 37.006C106.568 39.3071 106.478 41.5783 106.478 43.8794L106.508 43.8495Z" fill="white"/>
<path d="M110.841 43.9691C110.841 41.668 110.841 39.3968 110.841 37.0957C110.841 33.5694 113.261 29.7442 117.326 28.6684C123.751 26.9649 128.353 31.7464 128.712 36.2888C128.771 36.9164 128.801 37.544 128.801 38.1716C128.801 42.0266 128.801 45.8817 128.801 49.7368C128.801 50.7827 128.741 51.8287 128.502 52.8448C127.486 56.909 123.781 59.5986 119.597 59.5388C114.606 59.4492 110.841 55.2953 110.841 50.723C110.841 48.4816 110.841 46.2403 110.841 43.999V43.9691Z" fill="white"/>
<path d="M75.9658 160.159C34.068 160.159 -0.00012207 126.091 -0.00012207 84.1934C-0.00012207 53.0539 19.4845 24.6041 48.5021 13.3377C53.0445 11.5745 58.1547 13.8158 59.9179 18.3582C61.6811 22.9006 59.4398 28.0109 54.8974 29.774C32.6037 38.4106 17.6316 60.2859 17.6316 84.1934C17.6316 116.379 43.8103 142.528 75.9658 142.528C82.8989 142.528 89.7126 141.332 96.1676 138.941C100.74 137.268 105.79 139.599 107.494 144.171C109.167 148.743 106.836 153.794 102.264 155.497C93.8665 158.605 85.0207 160.159 75.9658 160.159Z" fill="white"/>
<path d="M151.932 84.1934C151.932 74.8994 150.258 65.7847 146.971 57.1481C145.238 52.6057 140.157 50.3046 135.585 52.0379C131.043 53.7712 128.741 58.8515 130.475 63.4238C132.985 70.0282 134.091 77.0212 134.27 84.1934C134.449 91.3656 132.866 96.1172 132.417 97.9999C128.712 113.42 111.588 121.519 97.2733 113.958C89.5333 109.864 85.2897 103.23 84.2736 94.5334C84.0943 93.0392 84.0644 91.5151 84.5127 90.0507C85.5288 86.614 88.6666 84.1934 92.3125 84.1635C95.809 84.1336 99.3054 84.1635 102.802 84.1635C104.894 84.1635 106.986 84.1934 109.048 84.1336C113.471 83.9842 116.967 80.6969 117.535 76.2143C118.043 72.2397 115.622 67.9363 111.199 66.5916C110.094 66.2628 108.928 66.203 107.793 66.203C102.832 66.203 97.9009 66.203 92.9401 66.203C91.2666 66.203 89.6229 66.2927 87.9494 66.5617C76.3543 68.4444 65.9546 78.7545 66.1637 93.0093C66.1936 95.5196 66.4626 97.9999 66.9407 100.45C68.674 109.207 72.7084 116.737 79.1634 122.864C88.7264 131.919 100.112 135.774 113.232 134.489C119.029 133.921 124.438 132.158 129.489 129.289C140.127 123.222 151.902 113.211 151.842 84.1934H151.932Z" fill="white"/>
<path d="M590.022 147.467H560.557V12.8739H590.022V65.9837H642.04V12.8739H671.505V147.467H642.04V93.2661H590.022V147.467Z" fill="white"/>
<path d="M477.374 149.65C436.996 149.65 411.714 122.913 411.714 80.3524C411.714 38.3375 438.451 10.6913 478.647 10.6913C512.295 10.6913 523.695 36.3067 524.927 41.2326C504.133 41.2326 498.148 39.065 477.919 39.065C456.094 39.065 442.816 54.5251 442.816 80.1706C442.816 105.452 456.275 121.276 477.919 121.276C518.921 121.276 543.544 42.1566 560.639 12.9089H590.194C564.182 58.7224 539.876 149.65 477.374 149.65Z" fill="white"/>
<path d="M408.493 79.9887C408.493 121.094 381.392 149.65 342.288 149.65C303.365 149.65 276.628 121.276 276.628 80.1705C276.628 39.065 303.547 10.5094 342.47 10.5094C381.574 10.5094 408.493 38.8831 408.493 79.9887ZM377.391 79.9887C377.391 54.3432 364.295 38.8831 342.651 38.8831C320.825 38.8831 307.73 54.3432 307.73 79.9887C307.73 105.816 320.825 121.276 342.651 121.276C364.295 121.276 377.391 105.452 377.391 79.9887Z" fill="white"/>
<path d="M175.932 40.1563V12.8739H281.788V40.1563H243.592V147.467H214.127V40.1563H175.932Z" fill="white"/>
</svg>
