<svg width="244" height="176" viewBox="0 0 244 176" fill="none" xmlns="http://www.w3.org/2000/svg">
<path d="M133.003 132.983C177.811 132.983 214.134 107.09 214.134 75.1496C214.134 43.2092 177.811 17.3164 133.003 17.3164C88.1953 17.3164 51.8716 43.2092 51.8716 75.1496C51.8716 107.09 88.1953 132.983 133.003 132.983Z" fill="#F6FBF6"/>
<path d="M62.1332 159.827C82.5877 159.827 99.1693 157.276 99.1693 154.129C99.1693 150.983 82.5877 148.432 62.1332 148.432C41.6788 148.432 25.0972 150.983 25.0972 154.129C25.0972 157.276 41.6788 159.827 62.1332 159.827Z" fill="#F6FBF6"/>
<path d="M122.668 160.968C159.62 160.968 189.575 158.417 189.575 155.27C189.575 152.123 159.62 149.572 122.668 149.572C85.7158 149.572 55.7603 152.123 55.7603 155.27C55.7603 158.417 85.7158 160.968 122.668 160.968Z" fill="#F6FBF6"/>
<path d="M104.466 14.8039C97.5573 14.9922 91.8407 20.5261 91.4433 27.4264C91.2094 31.4838 92.7818 35.1758 95.4282 37.7807C95.8193 38.1655 96.0009 38.7142 95.9096 39.2552L94.9158 45.1359L101.03 41.5732C101.379 41.3703 101.789 41.2957 102.184 41.3755C103.679 41.677 105.262 41.7325 106.895 41.4853C112.935 40.5703 117.648 35.5697 118.205 29.4858C118.947 21.3773 112.47 14.5861 104.466 14.8039Z" fill="#136207"/>
<path d="M104.229 32.8663L104.191 29.6577C104.659 29.5437 105.086 29.3952 105.472 29.2115C105.858 29.0282 106.197 28.8163 106.488 28.5754C106.779 28.3352 107.023 28.0661 107.22 27.7685C107.416 27.4711 107.564 27.1515 107.666 26.8099C107.767 26.4683 107.817 26.1075 107.817 25.7279C107.817 25.1838 107.684 24.6711 107.418 24.19C107.153 23.7093 106.773 23.32 106.279 23.0223C105.786 22.725 105.197 22.5761 104.514 22.5761C103.779 22.5761 103.099 22.7787 102.473 23.1837C101.846 23.5891 101.368 24.2786 101.039 25.2532L100.698 25.0252C100.989 24.1015 101.476 23.3925 102.16 22.8989C102.843 22.405 103.621 22.1582 104.495 22.1582C105.242 22.1582 105.897 22.3168 106.46 22.633C107.023 22.9495 107.463 23.3768 107.779 23.9147C108.095 24.4525 108.254 25.0569 108.254 25.7279C108.254 26.2344 108.169 26.7088 107.998 27.1518C107.827 27.5949 107.586 27.9999 107.276 28.367C106.966 28.7344 106.59 29.0536 106.147 29.3255C105.703 29.5981 105.204 29.8034 104.647 29.9428L104.609 32.8667L104.229 32.8663ZM104.001 35.2586C104.001 35.094 104.045 34.9581 104.134 34.8504C104.222 34.743 104.343 34.689 104.495 34.689C104.672 34.689 104.798 34.7399 104.875 34.841C104.951 34.9424 104.988 35.0815 104.988 35.2586C104.988 35.4105 104.947 35.5433 104.865 35.6573C104.782 35.7713 104.659 35.8281 104.494 35.8281C104.33 35.8281 104.206 35.7772 104.124 35.6762C104.041 35.5751 104.001 35.436 104.001 35.2586Z" fill="#FCEE21"/>
<path d="M65.6298 146.109L66.2251 150.597C66.2251 150.597 77.3867 155.351 76.3515 155.42C75.3162 155.489 59.2764 154.453 59.2764 154.453L60.2203 146.307L65.6298 146.109Z" fill="#021C2F"/>
<path d="M62.5205 72.8569C62.5205 72.8569 61.6309 81.4179 60.9641 81.8626C60.2969 82.3074 59.4077 82.5298 59.4077 82.5298L60.8529 72.7461L62.5205 72.8569Z" stroke="#424242" stroke-width="0.348571" stroke-miterlimit="10"/>
<path d="M44.8952 66.9727C44.8952 66.9727 40.3711 77.1882 41.6845 82.8797L66.7628 79.0545L66.2396 68.4419L44.8952 66.9727Z" fill="#021C2F"/>
<path d="M66.7624 79.0529C66.7624 79.0529 66.9042 103.563 67.0785 112.102C67.2528 120.641 68.7461 147.013 68.7461 147.013C68.7461 147.013 64.063 149.595 59.1855 147.508C58.7954 147.341 54.5938 78.8242 54.5938 78.8242L66.7624 79.0529Z" fill="#021C2F"/>
<path d="M42.0999 79.845L31.5176 147.237C31.5176 147.237 36.1389 151.567 41.9765 147.626L52.7369 92.579L57.9623 89.0706L58.7407 79.0293L42.0999 79.845Z" fill="#021C2F"/>
<path d="M39.3208 145.569L40.2842 149.44C40.2842 149.44 47.3257 157.909 46.288 157.909C45.2503 157.909 33.6875 152.667 33.6875 152.667L35.17 144.602L39.3208 145.569Z" fill="#021C2F"/>
<path d="M45.9651 71.1074C45.9651 71.1074 39.2962 99.1458 34.3389 148.649" stroke="#424242" stroke-width="0.348571" stroke-miterlimit="10"/>
<path d="M50.538 74.123C50.538 74.123 48.2029 79.9606 44.2139 80.0578" stroke="#424242" stroke-width="0.348571" stroke-miterlimit="10"/>
<path d="M60.4011 147.913L56.9893 89.8998L60.3223 86.4043" stroke="#424242" stroke-width="0.348571" stroke-miterlimit="10"/>
<path d="M60.3567 37.6217C62.0919 37.2665 63.3582 37.0117 63.3582 37.0117L74.1807 42.9224C74.1991 42.9326 74.2176 42.9427 74.2361 42.9528C77.7825 44.9096 79.35 48.2298 79.2566 52.8829L79.7822 59.6232L73.9175 54.8642L68.9598 64.4244L65.8111 75.7108C49.0086 81.8209 42.4819 70.8507 42.4819 70.8507L48.049 58.7995L50.2976 47.6696C51.366 41.9583 54.6652 38.787 60.3567 37.6217Z" fill="#55B648"/>
<path d="M146.281 70.9363C148.466 70.9363 150.582 70.1695 152.259 68.7696L156.915 64.8851C158.59 63.4874 160.579 62.7383 162.618 62.7383H185.721C187.817 62.7383 189.517 64.4379 189.517 66.5342V70.936V150.172C189.517 153.789 186.584 156.722 182.966 156.722H67.8013C64.9876 156.722 62.7065 154.441 62.7065 151.627V76.0311C62.7065 73.2174 64.9876 70.9363 67.8013 70.9363H146.281Z" fill="#323007"/>
<path d="M62.7067 152.056C62.7067 152.056 70.5443 137.354 71.3282 135.666L92.7483 92.0272C93.2868 90.8675 94.449 90.1258 95.7275 90.1258H175.327C178.22 90.1258 182.406 88.6088 184.628 86.7547L187.84 84.0746C189.515 82.6768 191.505 81.9277 193.543 81.9277H215.529C217.869 81.9277 219.459 84.305 218.565 86.4679L191.979 150.768C190.489 154.373 186.973 156.723 183.073 156.723H64.1442C63.3689 156.723 62.653 156.059 62.6533 155.284L62.7067 152.056Z" fill="#FCEE21"/>
<path d="M95.0832 94.2754L63.6519 155.375" stroke="#021C2F" stroke-miterlimit="10" stroke-linejoin="round"/>
<path d="M108.035 104.804H135.11C135.848 104.804 136.535 104.432 136.932 103.819C137.846 102.403 136.814 100.551 135.11 100.551H108.035C107.297 100.551 106.61 100.922 106.213 101.535C105.298 102.951 106.331 104.804 108.035 104.804Z" stroke="#021C2F" stroke-miterlimit="10" stroke-linejoin="round"/>
<path d="M158.682 125.805L137.602 138.364" stroke="#021C2F" stroke-miterlimit="10" stroke-linecap="round" stroke-linejoin="round"/>
<path d="M141.447 125.199L154.693 138.439" stroke="#021C2F" stroke-miterlimit="10" stroke-linecap="round" stroke-linejoin="round"/>
<path d="M151.591 143.53C160.029 141.196 165.439 134.137 163.676 127.762C161.912 121.388 153.643 118.112 145.206 120.446C136.769 122.78 131.358 129.839 133.121 136.214C134.885 142.588 143.154 145.864 151.591 143.53Z" stroke="#021C2F" stroke-miterlimit="10" stroke-linecap="round" stroke-linejoin="round"/>
<path d="M68.0858 66.1152L71.995 70.5051C71.995 70.5051 68.3277 74.8323 64.6028 72.2693L64.0054 71.4121L68.0858 66.1152Z" fill="#55B648"/>
<path d="M59.002 39.9219C59.002 39.9219 64.3581 41.3252 60.1439 56.8091" stroke="#021C2F" stroke-width="0.348571" stroke-miterlimit="10" stroke-linecap="round"/>
<path d="M68.4136 66.5759C65.5219 63.3269 61.9874 59.2444 59.8994 56.4297" stroke="#021C2F" stroke-width="0.348571" stroke-miterlimit="10" stroke-linecap="round"/>
<path d="M64.6027 72.2703C61.8274 69.4249 58.0771 65.3749 56.4402 63.8739C53.8894 61.5347 51.242 57.7708 52.105 52.9354L52.0015 49.0586" stroke="#021C2F" stroke-width="0.348571" stroke-miterlimit="10" stroke-linecap="round"/>
<path d="M81.2621 70.193C77.8444 68.3463 76.2699 66.06 74.9519 64.3652C71.8078 60.3228 70.6938 59.8223 71.6151 55.1173L71.6656 50.1934L78.4868 57.5754C81.0917 61.0308 87.0969 67.2253 89.3155 69.666C89.3155 69.666 86.711 73.137 81.2621 70.193Z" fill="#55B648"/>
<path d="M67.3509 68.9444C67.6653 68.8583 67.9912 68.8319 68.3154 68.866C69.4852 68.9898 72.6199 69.3188 72.9737 69.3233C73.4094 69.3289 73.7636 68.6785 74.6984 71.0366C75.6333 73.3943 75.4656 73.6139 75.4601 73.922C75.4548 74.2302 74.7765 78.7578 74.048 78.0777C73.3195 77.3976 73.4174 77.0017 73.4174 77.0017C73.4174 77.0017 73.0246 78.8404 72.8179 78.7696C72.6112 78.6985 71.8454 78.6964 71.9681 77.398C71.9681 77.398 71.5505 78.6602 71.12 78.3461C70.6895 78.0324 70.7861 76.6681 70.7861 76.6681C70.7861 76.6681 70.3253 77.6922 69.7989 77.0086C69.2729 76.3247 69.6647 74.7412 69.6647 74.7412L69.2238 73.5644L68.2697 73.1521C68.2697 73.1521 65.0583 73.9921 64.5059 71.763C64.0817 70.0501 66.3007 69.2317 67.3509 68.9444Z" fill="#D98F7E"/>
<path d="M73.8103 71.834L74.4133 74.3681L73.4175 77.0009" stroke="#021C2F" stroke-width="0.348571" stroke-miterlimit="10" stroke-linecap="round"/>
<path d="M72.2623 71.7402L73.0435 74.3374L71.9678 77.3969" stroke="#021C2F" stroke-width="0.348571" stroke-miterlimit="10" stroke-linecap="round"/>
<path d="M70.9044 72.0293L71.3593 74.5265L70.8389 76.3969" stroke="#021C2F" stroke-width="0.348571" stroke-miterlimit="10" stroke-linecap="round"/>
<path d="M68.282 23.8867C67.1426 24.9533 67.1258 26.2504 67.1258 26.2504C67.1258 26.2504 66.734 25.7666 66.2495 25.6111" stroke="#021C2F" stroke-width="0.348571" stroke-miterlimit="10" stroke-linecap="round"/>
<path d="M84.5589 68.2198C85.6427 67.958 86.7853 68.135 87.7773 68.6433C89.0827 69.3122 91.1218 70.3481 91.3878 70.4276C91.7827 70.5454 92.0403 70.3317 92.0926 72.7303C92.1132 73.678 92.1104 74.3323 92.026 74.6115C91.9413 74.8904 90.0256 77.7528 89.3964 77.3499C89.3793 77.3387 89.3675 77.3297 89.3518 77.3192C89.1922 77.5336 88.9785 77.7964 88.7686 77.9756C88.6114 78.1098 87.7365 78.0916 88.1841 76.9424C88.1841 76.9424 87.5776 78.2708 87.106 78.0937C86.4914 77.863 86.5911 77.2721 86.8152 76.7723C86.5298 77.1578 86.1763 77.4719 85.925 77.1383C85.4318 76.4837 86.5489 74.1556 86.5489 74.1556L86.6793 72.7456L85.8267 71.9826C85.8267 71.9826 82.7791 72.0572 82.8534 69.8866C82.8872 68.8907 83.6945 68.4285 84.5589 68.2198Z" fill="#D98F7E"/>
<path d="M91.2467 71.8535L91.208 74.4253L89.332 77.1549" stroke="#021C2F" stroke-width="0.348571" stroke-miterlimit="10" stroke-linecap="round"/>
<path d="M89.9151 71.873L89.7683 74.5239L88.1841 76.943" stroke="#021C2F" stroke-width="0.348571" stroke-miterlimit="10" stroke-linecap="round"/>
<path d="M88.5626 71.9434L88.3726 74.1756L87.0205 76.4183" stroke="#021C2F" stroke-width="0.348571" stroke-miterlimit="10" stroke-linecap="round"/>
<path d="M84.7062 71.3475C84.7062 71.3475 85.0123 73.6484 84.2695 74.1535C83.527 74.6585 82.3293 69.9002 83.153 69.8395C84.3601 69.7503 84.7062 71.3475 84.7062 71.3475Z" fill="#D98F7E"/>
<path d="M85.7186 71.0137C85.7186 71.0137 84.9799 71.1322 84.769 71.9994" stroke="#021C2F" stroke-width="0.348571" stroke-miterlimit="10" stroke-linecap="round"/>
<path d="M71.3853 59.8793L74.9755 55.2001C78.2577 50.8579 76.0704 46.2676 76.0704 46.2676" stroke="#021C2F" stroke-width="0.348571" stroke-miterlimit="10" stroke-linecap="round"/>
<path d="M79.7823 59.6222C79.7823 59.6222 77.6672 56.6897 77.1865 57.9878" stroke="#021C2F" stroke-width="0.348571" stroke-miterlimit="10" stroke-linecap="round"/>
<path d="M80.5997 35.2162L79.9907 35.0879" stroke="white" stroke-width="0.348571" stroke-miterlimit="10"/>
<path d="M67.869 34.6504L63.3581 37.0109C63.3581 37.0109 63.2396 42.3643 68.3054 46.4331L70.5802 44.2229L72.8727 46.5161C72.8727 46.5161 73.7449 45.8312 74.0039 42.723L73.595 38.9493L67.869 34.6504Z" fill="white"/>
<path d="M73.5951 38.9493L67.8688 34.6504L63.3579 37.0109" stroke="#021C2F" stroke-width="0.348571" stroke-miterlimit="10" stroke-linecap="round" stroke-linejoin="round"/>
<path d="M66.5596 35.4614C66.5596 35.4614 67.9542 43.6159 70.0191 44.1938C72.0837 44.7714 73.3717 40.6938 73.3717 40.6938L69.3736 29.5625L66.5596 35.4614Z" fill="#D98F7E"/>
<path d="M74.1381 41.674L74.1629 42.6877C74.1817 42.6981 74.1217 43.0007 73.1165 43.1161C68.6997 42.9843 68.3501 38.0144 67.9907 34.0605C67.9907 34.0605 74.546 40.8849 74.1381 41.674Z" fill="#021C2F"/>
<path d="M80.3194 30.5877C80.3194 30.5877 81.4539 40.9236 75.3909 42.603C69.3278 44.2824 67.8754 34.3952 68.0845 30.9757C68.2936 27.5562 70.0009 25.8674 74.2504 25.7144C80.5369 25.4878 80.3194 30.5877 80.3194 30.5877Z" fill="#D98F7E"/>
<path d="M71.2427 27.7871C71.2427 27.7871 71.129 29.9594 69.6873 30.3934L68.6507 33.588C68.6507 33.588 67.782 32.1683 66.8277 31.6653C66.8277 31.6653 65.7736 27.4465 67.1006 25.7703C68.4276 24.094 70.2722 23.2442 74.735 23.6154C78.1318 23.8977 80.119 26.3074 80.7681 27.5333C80.9786 27.9307 81.4893 29.0475 80.2954 30.134C80.2954 30.134 80.3114 29.3121 79.6143 28.3504C79.6143 28.3504 77.9879 31.6754 71.2427 27.7871Z" fill="#021C2F"/>
<path d="M65.4298 34.1353C65.8038 35.4993 66.8767 36.4007 67.8262 36.149C68.7758 35.8973 69.2428 34.5878 68.8688 33.2238C68.4952 31.8598 67.4219 30.9584 66.4724 31.2101C65.5225 31.4621 65.0558 32.7717 65.4298 34.1353Z" fill="#D98F7E"/>
<path d="M74.1717 34.5905C74.1542 34.9419 74.3212 35.2357 74.5446 35.2472C74.7681 35.2587 74.9629 34.983 74.98 34.6316C74.9974 34.2803 74.8305 33.9864 74.607 33.9749C74.3839 33.9638 74.1887 34.2395 74.1717 34.5905Z" fill="#021C2F"/>
<path d="M78.8482 34.8809C78.8137 35.2099 78.9486 35.4944 79.1493 35.5156C79.3501 35.5369 79.5411 35.2877 79.5756 34.9583C79.6101 34.6292 79.4752 34.3448 79.2745 34.3235C79.0733 34.3023 78.8827 34.5518 78.8482 34.8809Z" fill="#021C2F"/>
<path d="M72.8364 31.8097C72.8364 31.8097 74.4423 32.1538 74.5493 30.6309" stroke="#021C2F" stroke-width="0.348571" stroke-miterlimit="10" stroke-linecap="round"/>
<path d="M78.2778 31.6836C78.2778 31.6836 78.6871 33.0991 79.8942 32.2797" stroke="#021C2F" stroke-width="0.348571" stroke-miterlimit="10" stroke-linecap="round"/>
<path d="M73.8909 40.2543C73.8909 40.2543 73.3614 38.097 71.7183 39.3338L73.8909 40.2543Z" fill="#021C2F"/>
<path d="M66.3828 32.948C66.3828 32.948 67.4508 32.0292 68.0343 33.7093C68.0343 33.7093 67.4104 34.3716 67.8043 34.8913C67.8043 34.8913 67.1891 35.0307 66.8858 34.4883" stroke="#021C2F" stroke-width="0.348571" stroke-miterlimit="10" stroke-linecap="round" stroke-linejoin="round"/>
<path d="M66.8452 33.5906C66.8452 33.5906 66.9048 33.2173 67.3193 32.791" stroke="#021C2F" stroke-width="0.348571" stroke-miterlimit="10" stroke-linecap="round" stroke-linejoin="round"/>
<path d="M77.9209 34.8272C77.9209 35.8255 78.5344 36.6349 79.2915 36.6349C80.0486 36.6349 80.6621 35.8255 80.6621 34.8272C80.6621 33.8289 80.0486 33.0195 79.2915 33.0195C78.5344 33.0195 77.9209 33.8289 77.9209 34.8272Z" stroke="white" stroke-width="0.348571" stroke-miterlimit="10"/>
<path d="M72.791 34.5795C72.791 35.6374 73.5722 36.4949 74.5356 36.4949C75.4991 36.4949 76.2802 35.6374 76.2802 34.5795C76.2802 33.5215 75.4991 32.6641 74.5356 32.6641C73.5722 32.6637 72.791 33.5215 72.791 34.5795Z" stroke="white" stroke-width="0.348571" stroke-miterlimit="10"/>
<path d="M77.9825 35.3491C77.9825 35.3491 77.5583 33.5487 76.1821 35.2215" stroke="white" stroke-width="0.348571" stroke-miterlimit="10"/>
<path d="M72.8277 33.8547L68.7734 32.9414" stroke="white" stroke-width="0.348571" stroke-miterlimit="10"/>
<path d="M78.1523 36.1465C78.3531 36.4013 78.3949 36.7049 78.2935 37.0332C78.1934 37.3574 77.863 37.5547 77.5283 37.5477C77.3732 37.5446 77.2244 37.5028 77.0776 37.4568C77.0135 37.4369 76.8866 37.3682 76.8176 37.3986C76.4833 37.5463 76.094 37.2546 76.2055 37.0266" stroke="#021C2F" stroke-width="0.348571" stroke-miterlimit="10" stroke-linecap="round"/>
</svg>
